<svg xmlns="http://www.w3.org/2000/svg" width="196" height="178" viewBox="0 0 196 178">
  <g id="Group_19993" data-name="Group 19993" transform="translate(22553 6181)">
    <rect id="Rectangle_10772" data-name="Rectangle 10772" width="196" height="178" rx="8" transform="translate(-22553 -6181)" fill="#f4f9ff"/>
    <g id="Group_19993-2" data-name="Group 19993" transform="translate(-22516.91 -6157.998)">
      <path id="Path_71447" data-name="Path 71447" d="M49.868,73.926c-16.6-.541-20.581-14.754-21.434-19.343A7.206,7.206,0,0,1,24.4,52.019,8.111,8.111,0,0,1,22.886,46.5a7.616,7.616,0,0,1,1.8-5.921,5.569,5.569,0,0,1,1.342-1.012,29.274,29.274,0,0,1-4.362-16.628C23.584,9.206,34.65,7.869,38.115,7.792a16.225,16.225,0,0,1,5.833-4.3,20.556,20.556,0,0,1,13.214-.736c8.581,2.24,14.3,6.536,17.018,12.77,3.865,8.861.475,19.059-1.472,23.639a5.638,5.638,0,0,1,2.01,1.154A7.383,7.383,0,0,1,76.771,46.5a8.1,8.1,0,0,1-1.509,5.522,7.217,7.217,0,0,1-4.038,2.564C70.372,59.172,66.4,73.385,49.868,73.926ZM29.1,42.507a2.49,2.49,0,0,0-1.778.633,4.386,4.386,0,0,0-.753,3.293,1.891,1.891,0,0,1-.013.368,4.544,4.544,0,0,0,.771,2.991,4.2,4.2,0,0,0,2.945,1.4,1.841,1.841,0,0,1,1.618,1.671c.061.685,1.693,16.854,17.981,17.388,16.2-.534,17.837-16.7,17.9-17.392a1.841,1.841,0,0,1,1.618-1.668,4.2,4.2,0,0,0,2.945-1.4,4.554,4.554,0,0,0,.771-3.006,1.927,1.927,0,0,1-.013-.357,4.386,4.386,0,0,0-.83-3.379,2.792,2.792,0,0,0-2-.523,1.841,1.841,0,0,1-1.942-2.685c.068-.129,6.81-12.925,2.477-22.869C68.553,11.834,63.655,8.247,56.236,6.31a16.858,16.858,0,0,0-10.81.552,12.378,12.378,0,0,0-4.959,3.88,1.824,1.824,0,0,1-1.633.736c-.477-.039-11.747-.768-13.514,11.831h0s-.51,10.022,5.3,16.1a1.841,1.841,0,0,1,.35,2.025,1.743,1.743,0,0,1-1.743,1.088Z" transform="translate(11.538 0)" fill="#77a8d8"/>
      <path id="Path_71448" data-name="Path 71448" d="M67.35,35.346a1.841,1.841,0,0,1-1.841-1.763c-.022-.477-.593-11.6-8.894-12.665a28.025,28.025,0,0,1-21.375-6.192c-2.347,1.765-7.754,7.13-6.714,18.573a1.841,1.841,0,0,1-3.659.333c-1.526-16.788,9.254-22.615,9.713-22.854a1.841,1.841,0,0,1,2.124.3,24.581,24.581,0,0,0,19.558,6.171,2.058,2.058,0,0,1,.51-.018c9.357.974,12.216,11.027,12.418,16.2a1.841,1.841,0,0,1-1.763,1.911Z" transform="translate(14.129 7.205)" fill="#77a8d8"/>
      <path id="Path_71449" data-name="Path 71449" d="M113.152,93.375H9.752a1.841,1.841,0,0,1-1.841-1.841V71.016a24.494,24.494,0,0,1,24.48-24.445h3.534a1.841,1.841,0,0,1,0,3.681H32.391a20.81,20.81,0,0,0-20.8,20.764V89.694h99.719V71.016A20.787,20.787,0,0,0,90.547,50.252H86.76a1.841,1.841,0,0,1,0-3.681h3.788a24.48,24.48,0,0,1,24.445,24.445V91.535A1.841,1.841,0,0,1,113.152,93.375Z" transform="translate(0 37.467)" fill="#77a8d8"/>
      <path id="Path_71450" data-name="Path 71450" d="M41.183,96.194a1.841,1.841,0,0,1-1.82-2.115l7.449-49.3a1.841,1.841,0,0,1,2.35-1.487L62.016,47.17a1.841,1.841,0,0,1,1.119,2.577L58.026,60l2.963,3.326a1.841,1.841,0,0,1,.184,2.192l-18.426,29.8A1.841,1.841,0,0,1,41.183,96.194Zm8.953-48.761L44.347,85.741,57.328,64.759l-2.877-3.23a1.841,1.841,0,0,1-.274-2.045l4.69-9.413Z" transform="translate(26.42 34.648)" fill="#77a8d8"/>
      <path id="Path_71451" data-name="Path 71451" d="M43.659,96.191a1.841,1.841,0,0,1-1.566-.872L23.661,65.52a1.841,1.841,0,0,1,.184-2.192L26.808,60,21.7,49.75a1.841,1.841,0,0,1,1.119-2.577L35.672,43.3a1.841,1.841,0,0,1,2.349,1.487l7.453,49.3a1.841,1.841,0,0,1-1.815,2.109ZM27.513,64.75,40.495,85.733l-5.789-38.3-8.732,2.632,4.688,9.413a1.841,1.841,0,0,1-.272,2.045Z" transform="translate(11.43 34.651)" fill="#77a8d8"/>
      <path id="Path_71452" data-name="Path 71452" d="M43.219,55.362a99.782,99.782,0,0,1-11.907-.721,1.841,1.841,0,1,1,.438-3.654,92.8,92.8,0,0,0,22.652,0,1.84,1.84,0,1,1,.46,3.652,92.951,92.951,0,0,1-11.644.723Z" transform="translate(18.264 41.162)" fill="#77a8d8"/>
      <path id="Path_71453" data-name="Path 71453" d="M46.561,51.858a1.841,1.841,0,0,1-1.472-.745c-2.735-3.7-3.23-11.027-3.276-11.85a1.841,1.841,0,0,1,1.73-1.944,1.861,1.861,0,0,1,1.944,1.73c.112,1.936.793,7.486,2.56,9.875a1.841,1.841,0,0,1-1.472,2.934Z" transform="translate(28.494 29.688)" fill="#77a8d8"/>
      <path id="Path_71454" data-name="Path 71454" d="M30.331,51.86a1.841,1.841,0,0,1-1.472-2.934c1.771-2.393,2.45-7.94,2.562-9.875a1.844,1.844,0,1,1,3.681.214c-.046.823-.552,8.152-3.276,11.85a1.841,1.841,0,0,1-1.495.745Z" transform="translate(17.305 29.686)" fill="#77a8d8"/>
      <path id="Path_71455" data-name="Path 71455" d="M60.574,67.518a1.841,1.841,0,0,1-1.841-1.787c-.344-11.986-4.9-15.757-4.946-15.794a1.853,1.853,0,0,1-.32-2.577,1.83,1.83,0,0,1,2.549-.353c.243.184,5.995,4.651,6.4,18.617a1.841,1.841,0,0,1-1.785,1.892Z" transform="translate(37.974 37.527)" fill="#77a8d8"/>
      <path id="Path_71456" data-name="Path 71456" d="M60.484,70.534a7.276,7.276,0,1,1,7.274-7.275,7.276,7.276,0,0,1-7.274,7.275Zm0-10.87a3.595,3.595,0,1,0,3.593,3.594,3.595,3.595,0,0,0-3.593-3.594Z" transform="translate(38.074 45.378)" fill="#77a8d8"/>
      <path id="Path_71457" data-name="Path 71457" d="M16.963,67.472a1.841,1.841,0,0,1-1.841-1.71c-1-14.126,6.781-18.641,7.112-18.827a1.841,1.841,0,1,1,1.809,3.206c-.28.166-6.074,3.742-5.251,15.361a1.841,1.841,0,0,1-1.706,1.966Z" transform="translate(5.987 37.573)" fill="#77a8d8"/>
      <path id="Path_71458" data-name="Path 71458" d="M15.845,74.6a1.841,1.841,0,0,1-1.472-.725,11.505,11.505,0,0,1-1.949-3.954,11.066,11.066,0,0,1,7.232-13.79,10.307,10.307,0,0,1,7.914.979,11.813,11.813,0,0,1,5.743,12.17,1.841,1.841,0,1,1-3.631-.6,8.139,8.139,0,0,0-3.913-8.356,6.661,6.661,0,0,0-5.113-.65,7.388,7.388,0,0,0-4.69,9.269A7.854,7.854,0,0,0,17.3,71.647,1.841,1.841,0,0,1,15.837,74.6Z" transform="translate(3.382 45.181)" fill="#77a8d8"/>
      <path id="Path_71459" data-name="Path 71459" d="M24.365,65.732a1.467,1.467,0,0,1-.219-.011l-2.074-.245a1.841,1.841,0,1,1,.434-3.657l2.074.247a1.841,1.841,0,0,1-.215,3.668Z" transform="translate(10.538 50.273)" fill="#77a8d8"/>
      <path id="Path_71460" data-name="Path 71460" d="M14.9,68.055a1.841,1.841,0,0,1-.641-3.567l2.209-.815a1.842,1.842,0,0,1,1.288,3.451l-2.209.817a1.841,1.841,0,0,1-.648.114Z" transform="translate(4.326 51.744)" fill="#77a8d8"/>
    </g>
  </g>
</svg>
